<svg width="239" height="418" viewBox="0 0 239 418" fill="none" xmlns="http://www.w3.org/2000/svg">
<path fill-rule="evenodd" clip-rule="evenodd" d="M0.503174 357.356V306.704H25.0315C31.7497 306.704 37.1959 312.15 37.1959 318.869C37.1959 325.587 31.7497 331.033 25.0315 331.033H26.8262C33.8749 331.033 39.5889 336.747 39.5889 343.796V345.128C39.5889 352.279 33.7149 358.034 26.5658 357.888L0.503174 357.356ZM9.27752 336.218H21.6414C25.6062 336.218 28.8204 339.432 28.8204 343.397C28.8204 347.362 25.6062 350.576 21.6414 350.576H9.27752V336.218ZM8.08102 325.449V313.484H19.2484C22.5524 313.484 25.2309 316.163 25.2309 319.467C25.2309 322.771 22.5524 325.449 19.2484 325.449H8.08102Z" fill="white"/>
<path d="M47.5661 321.062L47.1672 357.356H57.1381C56.8722 348.449 56.3404 329.836 56.3404 326.646C60.8074 325.369 67.2419 326.38 69.9008 327.044C70.0337 325.981 70.3794 322.976 70.6984 319.467C62.0836 316.595 51.6874 319.334 47.5661 321.062Z" fill="white"/>
<path fill-rule="evenodd" clip-rule="evenodd" d="M114.59 332.216C117.382 321.847 124.161 317.061 142.906 319.853C146.096 320.491 147.426 321.182 147.692 321.448V359.736C147.161 363.325 144.103 370.585 136.126 370.904C126.155 371.302 116.583 370.105 115.387 369.706L117.381 361.331C122.167 363.06 132.776 365.479 136.924 361.331C138.519 360.055 138.918 355.747 138.918 353.753C135.461 354.684 127.352 356.146 122.566 354.551C116.584 352.557 111.798 342.586 114.59 332.216ZM138.899 325.45C133.449 324.253 122.626 324.971 122.945 337.414C122.945 346.189 128.131 348.981 138.899 346.189V325.45Z" fill="white"/>
<path fill-rule="evenodd" clip-rule="evenodd" d="M79.0735 319.466C86.3854 317.738 101.727 316.675 104.599 326.247C104.599 336.138 104.865 350.576 104.998 356.558C100.079 357.09 88.8854 357.994 83.4612 357.356C76.6811 356.558 75.0852 348.582 75.0852 342.599C75.0852 336.617 82.2643 333.426 95.8245 333.825C95.8245 330.235 96.2236 326.646 91.4377 325.848C87.6089 325.21 81.5994 326.38 79.0735 327.045V319.466ZM96.2239 341.579C91.8652 341.063 83.2123 341.373 83.467 346.74C83.467 350.525 87.6129 351.729 96.2239 350.525V341.579Z" fill="white"/>
<path fill-rule="evenodd" clip-rule="evenodd" d="M160.834 319.413C168.146 317.685 183.488 316.622 186.359 326.193C186.359 336.084 186.625 350.522 186.758 356.505C181.839 357.037 170.645 357.941 165.221 357.303C158.441 356.505 156.846 348.528 156.846 342.546C156.846 336.563 164.025 333.373 177.585 333.772C177.585 330.182 177.984 326.593 173.198 325.795C169.369 325.157 163.36 326.327 160.834 326.991V319.413ZM177.984 341.526C173.626 341.01 164.972 341.32 165.227 346.688C165.227 350.472 169.373 351.677 177.984 350.473V341.526Z" fill="white"/>
<path fill-rule="evenodd" clip-rule="evenodd" d="M208.695 305.906C228.238 304.311 235.417 320.663 222.256 331.431C230.631 336.616 231.827 346.985 228.238 351.373C224.649 355.76 211.886 361.742 202.713 356.159C193.539 350.575 193.539 338.211 202.713 331.431C195.135 331.431 191.545 307.306 208.695 305.906ZM210.7 335.021C208.961 335.163 205.008 337.24 203.111 344.407C206.906 355.073 220.958 350.838 220.655 345.096C220.655 341.047 217.815 337.154 210.7 335.021ZM219.864 318.855C216.759 308.19 205.263 312.424 205.511 318.166C205.511 322.214 207.834 326.108 213.655 328.241C215.078 328.098 218.312 326.022 219.864 318.855Z" fill="white"/>
<path d="M31.6125 21.1382C31.6125 9.46389 41.0764 0 52.7508 0C64.4251 0 73.889 9.4639 73.889 21.1382V77.3738L71.6148 78.5274C55.2835 86.8114 42.2997 100.462 34.8438 117.188L31.6125 124.436V21.1382Z" fill="white"/>
<path d="M115.767 72.5883C162.244 72.5884 199.92 110.265 199.92 156.742V184.661C199.92 231.137 162.244 268.814 115.767 268.814C69.29 268.814 31.6127 231.137 31.6125 184.661V156.742C31.6126 110.265 69.2899 72.5883 115.767 72.5883ZM115.367 115.662C92.4594 115.662 73.888 134.233 73.8879 157.141V184.262C73.8881 207.17 92.4595 225.741 115.367 225.741C138.275 225.74 156.846 207.17 156.846 184.262V157.141C156.846 134.233 138.275 115.663 115.367 115.662Z" fill="white"/>
<path d="M5.95973 388.093V402.12C5.95973 405.27 7.94818 407.488 11.4662 407.488C14.9842 407.488 16.988 405.27 16.988 402.12V388.093H20.3989V402.41C20.3989 407.167 17.0033 410.532 11.4662 410.532C5.92914 410.532 2.53349 407.167 2.53349 402.41V388.093H5.95973ZM33.4921 410.165H30.0658V391.045H23.1827V388.093H40.3598V391.045H33.4921V410.165ZM46.5852 410.165H43.159V388.093H46.5852V410.165ZM64.3589 407.198V410.165H50.6539V388.093H54.0801V407.198H64.3589ZM70.7219 410.165H67.2956V388.093H70.7219V410.165ZM83.815 410.165H80.3888V391.045H73.5057V388.093H90.6828V391.045H83.815V410.165ZM103.042 410.165H99.6155V401.125L91.8453 388.093H95.6692L101.298 397.837H101.405L107.034 388.093H110.827L103.042 401.125V410.165ZM119.515 404.016H122.896C123.14 406.204 125.266 407.641 128.173 407.641C130.957 407.641 132.96 406.204 132.96 404.23C132.96 402.517 131.752 401.492 128.892 400.789L126.031 400.101C121.978 399.122 120.097 397.225 120.097 394.15C120.097 390.342 123.416 387.726 128.127 387.726C132.792 387.726 135.989 390.342 136.096 394.15H132.761C132.563 391.948 130.742 390.617 128.081 390.617C125.419 390.617 123.599 391.963 123.599 393.921C123.599 395.481 124.762 396.399 127.607 397.103L130.039 397.699C134.566 398.77 136.448 400.59 136.448 403.817C136.448 407.947 133.159 410.532 127.928 410.532C123.033 410.532 119.729 408.008 119.515 404.016ZM148.868 410.165H145.442V401.125L137.671 388.093H141.495L147.124 397.837H147.231L152.86 388.093H156.653L148.868 401.125V410.165ZM157.908 404.016H161.288C161.533 406.204 163.659 407.641 166.565 407.641C169.349 407.641 171.353 406.204 171.353 404.23C171.353 402.517 170.144 401.492 167.284 400.789L164.424 400.101C160.37 399.122 158.489 397.225 158.489 394.15C158.489 390.342 161.808 387.726 166.519 387.726C171.184 387.726 174.381 390.342 174.488 394.15H171.154C170.955 391.948 169.135 390.617 166.473 390.617C163.812 390.617 161.992 391.963 161.992 393.921C161.992 395.481 163.154 396.399 165.999 397.103L168.431 397.699C172.959 398.77 174.84 400.59 174.84 403.817C174.84 407.947 171.551 410.532 166.32 410.532C161.426 410.532 158.122 408.008 157.908 404.016ZM186.939 410.165H183.513V391.045H176.63V388.093H193.807V391.045H186.939V410.165ZM210.617 407.198V410.165H196.606V388.093H210.617V391.045H200.032V397.5H210.051V400.345H200.032V407.198H210.617ZM236.467 388.093V410.165H233.331V393.921H233.224L226.57 409.997H224.031L217.362 393.921H217.255V410.165H214.135V388.093H218.096L225.239 405.515H225.362L232.49 388.093H236.467Z" fill="white"/>
</svg>
